<?xml version="1.0" encoding="UTF-8" standalone="no"?>
<!-- Created with Inkscape (http://www.inkscape.org/) -->
<svg width="13.176584mm" height="10.358384mm" viewBox="0 0 13.176584 10.358384" version="1.1" id="svg5" inkscape:version="1.1.1 (3bf5ae0d25, 2021-09-20)" sodipodi:docname="periodicbackup.svg" xmlns:inkscape="http://www.inkscape.org/namespaces/inkscape" xmlns:sodipodi="http://sodipodi.sourceforge.net/DTD/sodipodi-0.dtd" xmlns:xlink="http://www.w3.org/1999/xlink" xmlns="http://www.w3.org/2000/svg" xmlns:svg="http://www.w3.org/2000/svg">
  <sodipodi:namedview id="namedview7" pagecolor="#ffffff" bordercolor="#666666" borderopacity="1.0" inkscape:pageshadow="2" inkscape:pageopacity="0.0" inkscape:pagecheckerboard="0" inkscape:document-units="mm" showgrid="false" inkscape:zoom="2.9362514" inkscape:cx="-118.34818" inkscape:cy="33.886744" inkscape:window-width="1920" inkscape:window-height="1009" inkscape:window-x="-8" inkscape:window-y="-8" inkscape:window-maximized="1" inkscape:current-layer="layer1" />
  <defs id="defs2">
    <inkscape:perspective sodipodi:type="inkscape:persp3d" inkscape:vp_x="0 : -262.64161 : 1" inkscape:vp_y="0 : 999.99993 : 0" inkscape:vp_z="48.000002 : -262.64161 : 1" inkscape:persp3d-origin="24.000001 : -270.64161 : 1" id="perspective79" />
    <radialGradient inkscape:collect="always" xlink:href="#linearGradient5060" id="radialGradient6719" gradientUnits="userSpaceOnUse" gradientTransform="matrix(-2.774389,0,0,1.969706,112.7623,-872.8854)" cx="605.71429" cy="486.64789" fx="605.71429" fy="486.64789" r="117.14286" />
    <linearGradient inkscape:collect="always" id="linearGradient5060">
      <stop style="stop-color:black;stop-opacity:1;" offset="0" id="stop5062" />
      <stop style="stop-color:black;stop-opacity:0;" offset="1" id="stop5064" /> </linearGradient>
    <radialGradient inkscape:collect="always" xlink:href="#linearGradient5060" id="radialGradient6717" gradientUnits="userSpaceOnUse" gradientTransform="matrix(2.774389,0,0,1.969706,-1891.633,-872.8854)" cx="605.71429" cy="486.64789" fx="605.71429" fy="486.64789" r="117.14286" />
    <linearGradient id="linearGradient5048">
      <stop style="stop-color:black;stop-opacity:0;" offset="0" id="stop5050" />
      <stop id="stop5056" offset="0.5" style="stop-color:black;stop-opacity:1;" />
      <stop style="stop-color:black;stop-opacity:0;" offset="1" id="stop5052" /> </linearGradient>
    <linearGradient inkscape:collect="always" xlink:href="#linearGradient5048" id="linearGradient6715" gradientUnits="userSpaceOnUse" gradientTransform="matrix(2.774389,0,0,1.969706,-1892.179,-872.8854)" x1="302.85715" y1="366.64789" x2="302.85715" y2="609.50507" />
    <linearGradient id="linearGradient2555">
      <stop id="stop2557" offset="0" style="stop-color:#ffffff;stop-opacity:1;" />
      <stop style="stop-color:#e6e6e6;stop-opacity:1.0000000;" offset="0.50000000" id="stop2561" />
      <stop id="stop2563" offset="0.75000000" style="stop-color:#ffffff;stop-opacity:1.0000000;" />
      <stop style="stop-color:#e1e1e1;stop-opacity:1.0000000;" offset="0.84166664" id="stop2565" />
      <stop id="stop2559" offset="1.0000000" style="stop-color:#ffffff;stop-opacity:1.0000000;" /> </linearGradient>
    <linearGradient id="linearGradient4274">
      <stop style="stop-color:#ffffff;stop-opacity:0.25490198;" offset="0.0000000" id="stop4276" />
      <stop style="stop-color:#ffffff;stop-opacity:1.0000000;" offset="1.0000000" id="stop4278" /> </linearGradient>
    <linearGradient id="linearGradient4254" inkscape:collect="always">
      <stop id="stop4256" offset="0" style="stop-color:#ffffff;stop-opacity:1;" />
      <stop id="stop4258" offset="1" style="stop-color:#ffffff;stop-opacity:0;" /> </linearGradient>
    <linearGradient id="linearGradient4244">
      <stop id="stop4246" offset="0.0000000" style="stop-color:#e4e4e4;stop-opacity:1.0000000;" />
      <stop id="stop4248" offset="1.0000000" style="stop-color:#d3d3d3;stop-opacity:1.0000000;" /> </linearGradient>
    <linearGradient id="linearGradient4236" inkscape:collect="always">
      <stop id="stop4238" offset="0" style="stop-color:#eeeeee;stop-opacity:1;" />
      <stop id="stop4240" offset="1" style="stop-color:#eeeeee;stop-opacity:0;" /> </linearGradient>
    <linearGradient id="linearGradient4228">
      <stop id="stop4230" offset="0.0000000" style="stop-color:#bbbbbb;stop-opacity:1.0000000;" />
      <stop id="stop4232" offset="1.0000000" style="stop-color:#9f9f9f;stop-opacity:1.0000000;" /> </linearGradient>
    <linearGradient id="linearGradient4184">
      <stop id="stop4186" offset="0.0000000" style="stop-color:#838383;stop-opacity:1.0000000;" />
      <stop id="stop4188" offset="1.0000000" style="stop-color:#bbbbbb;stop-opacity:0.0000000;" /> </linearGradient>
    <linearGradient gradientTransform="translate(0.795493,-1.325821)" y2="35.28125" x2="24.6875" y1="35.28125" x1="7.0625" gradientUnits="userSpaceOnUse" id="linearGradient4209" xlink:href="#linearGradient4184" inkscape:collect="always" />
    <linearGradient gradientUnits="userSpaceOnUse" y2="40.943935" x2="36.183067" y1="28.481176" x1="7.6046205" id="linearGradient4234" xlink:href="#linearGradient4228" inkscape:collect="always" />
    <linearGradient gradientUnits="userSpaceOnUse" y2="33.758667" x2="12.221823" y1="37.205811" x1="12.277412" id="linearGradient4242" xlink:href="#linearGradient4236" inkscape:collect="always" />
    <radialGradient gradientUnits="userSpaceOnUse" gradientTransform="matrix(1.286242,0.781698,-0.710782,1.169552,-2.354348,-4.876862)" r="20.935818" fy="2.958519" fx="15.571491" cy="2.958519" cx="15.571491" id="radialGradient4250" xlink:href="#linearGradient4244" inkscape:collect="always" />
    <linearGradient gradientUnits="userSpaceOnUse" y2="47.620636" x2="44.0961" y1="4.433136" x1="12.378357" id="linearGradient4260" xlink:href="#linearGradient4254" inkscape:collect="always" />
    <radialGradient gradientUnits="userSpaceOnUse" gradientTransform="matrix(1,0,0,0.651032,0,9.455693)" r="23.555494" fy="27.096155" fx="23.201941" cy="27.096155" cx="23.201941" id="radialGradient4270" xlink:href="#linearGradient5060" inkscape:collect="always" />
    <linearGradient gradientUnits="userSpaceOnUse" y2="26.357183" x2="23.688078" y1="11.318835" x1="23.688078" id="linearGradient4272" xlink:href="#linearGradient4274" inkscape:collect="always" />
    <linearGradient inkscape:collect="always" xlink:href="#linearGradient2555" id="linearGradient2553" x1="33.431175" y1="31.964777" x2="21.747974" y2="11.780679" gradientUnits="userSpaceOnUse" />
    <linearGradient inkscape:collect="always" id="linearGradient2690">
      <stop style="stop-color:#c4d7eb;stop-opacity:1;" offset="0" id="stop2692" />
      <stop style="stop-color:#c4d7eb;stop-opacity:0;" offset="1" id="stop2694" /> </linearGradient>
    <linearGradient id="linearGradient2682">
      <stop style="stop-color:#3977c3;stop-opacity:1;" offset="0" id="stop2684" />
      <stop style="stop-color:#89aedc;stop-opacity:0;" offset="1" id="stop2686" /> </linearGradient>
    <linearGradient id="linearGradient2402">
      <stop style="stop-color:#729fcf;stop-opacity:1;" offset="0" id="stop2404" />
      <stop style="stop-color:#528ac5;stop-opacity:1;" offset="1" id="stop2406" /> </linearGradient>
    <linearGradient id="linearGradient2380">
      <stop style="stop-color:#b9cfe7;stop-opacity:1" offset="0" id="stop2382" />
      <stop style="stop-color:#729fcf;stop-opacity:1" offset="1" id="stop2384" /> </linearGradient>
    <linearGradient inkscape:collect="always" id="linearGradient2871">
      <stop style="stop-color:#3465a4;stop-opacity:1;" offset="0" id="stop2873" />
      <stop style="stop-color:#3465a4;stop-opacity:1" offset="1" id="stop2875" /> </linearGradient>
    <linearGradient inkscape:collect="always" id="linearGradient2847">
      <stop style="stop-color:#3465a4;stop-opacity:1;" offset="0" id="stop2849" />
      <stop style="stop-color:#3465a4;stop-opacity:0;" offset="1" id="stop2851" /> </linearGradient>
    <linearGradient id="linearGradient2831">
      <stop style="stop-color:#3465a4;stop-opacity:1;" offset="0" id="stop2833" />
      <stop id="stop2855" offset="0.33333334" style="stop-color:#5b86be;stop-opacity:1;" />
      <stop style="stop-color:#83a8d8;stop-opacity:0;" offset="1" id="stop2835" /> </linearGradient>
    <linearGradient inkscape:collect="always" xlink:href="#linearGradient2831" id="linearGradient1486" gradientUnits="userSpaceOnUse" gradientTransform="translate(0.465413,-0.277593)" x1="13.478554" y1="10.612206" x2="15.419417" y2="19.115122" />
    <linearGradient inkscape:collect="always" xlink:href="#linearGradient2847" id="linearGradient1488" gradientUnits="userSpaceOnUse" gradientTransform="rotate(180,23.763955,22.923705)" x1="37.128052" y1="29.729605" x2="37.065414" y2="26.194071" />
    <linearGradient inkscape:collect="always" xlink:href="#linearGradient4254" id="linearGradient1491" gradientUnits="userSpaceOnUse" x1="5.9649177" y1="26.048164" x2="52.854095" y2="26.048164" />
    <linearGradient inkscape:collect="always" xlink:href="#linearGradient2871" id="linearGradient1501" gradientUnits="userSpaceOnUse" x1="46.834816" y1="45.264122" x2="45.380436" y2="50.939667" />
    <radialGradient inkscape:collect="always" xlink:href="#linearGradient5060" id="radialGradient1503" gradientUnits="userSpaceOnUse" gradientTransform="matrix(1,0,0,0.536723,0,16.87306)" cx="24.837126" cy="36.421127" fx="24.837126" fy="36.421127" r="15.644737" />
    <linearGradient inkscape:collect="always" xlink:href="#linearGradient2380" id="linearGradient2386" x1="62.513836" y1="36.061237" x2="15.984863" y2="20.60858" gradientUnits="userSpaceOnUse" />
    <linearGradient inkscape:collect="always" xlink:href="#linearGradient2402" id="linearGradient2408" x1="18.935766" y1="23.667896" x2="53.588623" y2="26.649363" gradientUnits="userSpaceOnUse" />
    <linearGradient inkscape:collect="always" xlink:href="#linearGradient2682" id="linearGradient2688" x1="36.713837" y1="31.455952" x2="37.124462" y2="24.842253" gradientUnits="userSpaceOnUse" />
    <linearGradient inkscape:collect="always" xlink:href="#linearGradient2690" id="linearGradient2696" x1="32.647972" y1="30.748846" x2="37.124462" y2="24.842253" gradientUnits="userSpaceOnUse" />
    <linearGradient inkscape:collect="always" xlink:href="#linearGradient2380" id="linearGradient259" gradientUnits="userSpaceOnUse" x1="62.513836" y1="36.061237" x2="15.984863" y2="20.60858" />
    <linearGradient inkscape:collect="always" xlink:href="#linearGradient2871" id="linearGradient261" gradientUnits="userSpaceOnUse" x1="46.834816" y1="45.264122" x2="45.380436" y2="50.939667" />
    <linearGradient inkscape:collect="always" xlink:href="#linearGradient2402" id="linearGradient263" gradientUnits="userSpaceOnUse" x1="18.935766" y1="23.667896" x2="53.588623" y2="26.649363" />
    <linearGradient inkscape:collect="always" xlink:href="#linearGradient2871" id="linearGradient265" gradientUnits="userSpaceOnUse" x1="46.834816" y1="45.264122" x2="45.380436" y2="50.939667" />
    <linearGradient inkscape:collect="always" xlink:href="#linearGradient4254" id="linearGradient267" gradientUnits="userSpaceOnUse" x1="5.9649177" y1="26.048164" x2="52.854095" y2="26.048164" /> </defs>
  <g inkscape:label="Ebene 1" inkscape:groupmode="layer" id="layer1" transform="translate(-166.06098,-131.01346)">
    <g inkscape:label="pix" id="layer2" transform="matrix(0.26458333,0,0,0.26458333,166.33235,129.99712)">
      <g transform="matrix(0.0245274,0,0,0.02086758,45.69054,36.1536)" id="g6707">
        <rect style="color:#000000;display:inline;overflow:visible;visibility:visible;opacity:0.402062;fill:url(#linearGradient6715);fill-opacity:1;fill-rule:nonzero;stroke:none;stroke-width:1;stroke-linecap:round;stroke-linejoin:miter;stroke-miterlimit:4;stroke-dasharray:none;stroke-dashoffset:0;stroke-opacity:1;marker:none;marker-start:none;marker-mid:none;marker-end:none" id="rect6709" width="1339.6335" height="478.35718" x="-1559.2523" y="-150.69685" />
        <path style="color:#000000;display:inline;overflow:visible;visibility:visible;opacity:0.402062;fill:url(#radialGradient6717);fill-opacity:1;fill-rule:nonzero;stroke:none;stroke-width:1;stroke-linecap:round;stroke-linejoin:miter;stroke-miterlimit:4;stroke-dasharray:none;stroke-dashoffset:0;stroke-opacity:1;marker:none;marker-start:none;marker-mid:none;marker-end:none" d="m -219.61876,-150.68038 c 0,0 0,478.33079 0,478.33079 142.874166,0.90045 345.40022,-107.16966 345.40014,-239.196175 0,-132.026537 -159.436816,-239.134595 -345.40014,-239.134615 z" id="path6711" sodipodi:nodetypes="cccc" />
        <path sodipodi:nodetypes="cccc" id="path6713" d="m -1559.2523,-150.68038 c 0,0 0,478.33079 0,478.33079 -142.8742,0.90045 -345.4002,-107.16966 -345.4002,-239.196175 0,-132.026537 159.4368,-239.134595 345.4002,-239.134615 z" style="color:#000000;display:inline;overflow:visible;visibility:visible;opacity:0.402062;fill:url(#radialGradient6719);fill-opacity:1;fill-rule:nonzero;stroke:none;stroke-width:1;stroke-linecap:round;stroke-linejoin:miter;stroke-miterlimit:4;stroke-dasharray:none;stroke-dashoffset:0;stroke-opacity:1;marker:none;marker-start:none;marker-mid:none;marker-end:none" /> </g>
      <path sodipodi:nodetypes="cccsccccccccc" id="path4196" d="m 11.28569,7.9626278 c -0.625,0 -1.031249,0.2901802 -1.281248,0.843753 -10e-7,0 -6.4687505,17.1035572 -6.4687505,17.1035572 0,0 -0.25,0.671559 -0.25,1.78125 0,0 0,9.649968 0,9.649968 0,1.082613 0.6577855,1.625002 1.65625,1.625 H 43.50444 c 0.984853,0 1.59375,-0.71818 1.59375,-1.84375 v -9.649968 c 0,0 0.105963,-0.770423 -0.09375,-1.3125 L 38.28569,8.9626314 C 38.101165,8.4507246 37.648785,7.9745331 37.16069,7.9626278 Z" style="fill:none;fill-opacity:1;fill-rule:evenodd;stroke:#535353;stroke-width:2;stroke-linecap:round;stroke-linejoin:round;stroke-miterlimit:4;stroke-dasharray:none;stroke-opacity:1" />
      <path sodipodi:nodetypes="ccccccccc" id="path4170" d="m 3.2735915,26.996812 0.7646021,-0.692215 37.6096894,0.0625 3.462407,0.317298 v 10.438532 c 0,1.125569 -0.607018,1.843331 -1.591871,1.843331 H 4.9354314 c -0.9984647,0 -1.6618399,-0.542051 -1.6618399,-1.624664 z" style="fill:url(#linearGradient4234);fill-opacity:1;fill-rule:evenodd;stroke:none;stroke-width:1.02044px;stroke-linecap:butt;stroke-linejoin:miter;stroke-opacity:1" />
      <path sodipodi:nodetypes="csccccccs" id="path3093" d="m 3.5490842,25.914404 c -0.7142857,1.464286 -6.156e-4,2.392857 1.0357143,2.392857 0,0 38.9999985,0 38.9999985,0 1.119047,-0.02381 1.845238,-1.011905 1.428571,-2.142858 L 38.299082,8.9537044 C 38.114558,8.4417976 37.64432,7.9656058 37.156225,7.9537008 H 11.299083 c -0.625,0 -1.035714,0.3035732 -1.285713,0.857146 0,0 -6.4642858,17.1035572 -6.4642858,17.1035572 z" style="fill:url(#radialGradient4250);fill-opacity:1;fill-rule:evenodd;stroke:none;stroke-width:1px;stroke-linecap:butt;stroke-linejoin:miter;stroke-opacity:1" />
      <rect y="31.174183" x="7.857996" height="5.5625" width="17.625" id="rect4174" style="color:#000000;display:inline;overflow:visible;visibility:visible;opacity:1;fill:url(#linearGradient4209);fill-opacity:1;fill-rule:evenodd;stroke:none;stroke-width:2.409;stroke-linecap:round;stroke-linejoin:round;stroke-miterlimit:4;stroke-dasharray:none;stroke-dashoffset:0;stroke-opacity:1;marker:none;marker-start:none;marker-mid:none;marker-end:none" />
      <path sodipodi:nodetypes="cscc" id="path4194" d="m 7.8579947,36.73668 c 0,0 0,-4.011485 0,-4.011485 1.8355274,3.179226 8.2964903,4.011485 12.9374973,4.011485 0,0 -12.9374973,0 -12.9374973,0 z" style="opacity:0.811429;fill:url(#linearGradient4242);fill-opacity:1;fill-rule:evenodd;stroke:none;stroke-width:1px;stroke-linecap:butt;stroke-linejoin:miter;stroke-opacity:1" />
      <path sodipodi:nodetypes="cccccccc" id="path4201" d="m 44.796162,25.628688 c 0.06352,1.249974 -0.414003,2.31584 -1.322116,2.34375 0,0 -38.1187164,-1e-6 -38.1187163,0 -1.2892319,0 -1.867736,-0.324947 -2.0840507,-0.868056 0.091761,0.944332 0.8258174,1.649306 2.0840507,1.649306 -1e-7,-1e-6 38.1187163,0 38.1187163,0 1.076007,-0.03307 1.752805,-1.424024 1.352164,-2.994791 z" style="fill:#ffffff;fill-opacity:1;fill-rule:evenodd;stroke:none;stroke-width:1px;stroke-linecap:butt;stroke-linejoin:miter;stroke-opacity:1" />
      <path id="path4211" d="m 10.96875,10.15625 c -0.04608,0.200321 -0.1875,0.386797 -0.1875,0.59375 0,0.948605 0.59098,1.789474 1.34375,2.59375 0.240268,-0.154075 0.365117,-0.354408 0.625,-0.5 -0.940309,-0.816004 -1.553396,-1.716582 -1.78125,-2.6875 z m 26.65625,0 c -0.228727,0.969616 -0.842012,1.872426 -1.78125,2.6875 0.274144,0.153582 0.403988,0.36824 0.65625,0.53125 0.757262,-0.806656 1.3125,-1.673044 1.3125,-2.625 0,-0.206953 -0.141594,-0.393429 -0.1875,-0.59375 z m 2.1875,8.4375 c -0.613791,4.040111 -7.298613,7.25 -15.53125,7.25 -8.212254,1e-6 -14.8601499,-3.192786 -15.5,-7.21875 -0.032357,0.197132 -0.125,0.391882 -0.125,0.59375 3e-7,4.317947 6.989104,7.843751 15.625,7.84375 8.635896,0 15.656249,-3.525802 15.65625,-7.84375 0,-0.212924 -0.08905,-0.417356 -0.125,-0.625 z" style="color:#000000;display:inline;overflow:visible;visibility:visible;opacity:0.691429;fill:url(#linearGradient4272);fill-opacity:1;fill-rule:evenodd;stroke:none;stroke-width:2;stroke-linecap:round;stroke-linejoin:round;stroke-miterlimit:4;stroke-dasharray:none;stroke-dashoffset:0;stroke-opacity:1;marker:none;marker-start:none;marker-mid:none;marker-end:none" />
      <ellipse transform="translate(0.08838843,0.176776)" id="path4224" style="color:#000000;display:inline;overflow:visible;visibility:visible;opacity:1;fill:#ffffff;fill-opacity:0.457627;fill-rule:evenodd;stroke:none;stroke-width:2;stroke-linecap:round;stroke-linejoin:round;stroke-miterlimit:4;stroke-dasharray:none;stroke-dashoffset:0;stroke-opacity:1;marker:none;marker-start:none;marker-mid:none;marker-end:none" cx="7.2036505" cy="25.593554" rx="1.3700194" ry="1.016466" />
      <ellipse style="color:#000000;display:inline;overflow:visible;visibility:visible;opacity:1;fill:#ffffff;fill-opacity:0.457627;fill-rule:evenodd;stroke:none;stroke-width:2;stroke-linecap:round;stroke-linejoin:round;stroke-miterlimit:4;stroke-dasharray:none;stroke-dashoffset:0;stroke-opacity:1;marker:none;marker-start:none;marker-mid:none;marker-end:none" id="path4226" transform="translate(33.96705,0.08838804)" cx="7.2036505" cy="25.593554" rx="1.3700194" ry="1.016466" />
      <path style="fill:none;fill-opacity:1;fill-rule:evenodd;stroke:url(#linearGradient4260);stroke-width:1;stroke-linecap:round;stroke-linejoin:round;stroke-miterlimit:4;stroke-dasharray:none;stroke-opacity:1" d="m 11.642515,8.4157227 c -0.601692,0 -0.992791,0.2793586 -1.233466,0.8122873 -10e-7,0 -6.4150149,16.590722 -6.4150149,16.590722 0,0 -0.2406768,0.646515 -0.2406768,1.714823 0,0 0,9.290096 0,9.290096 0,1.35474 0.4440561,1.626899 1.5944841,1.626899 H 43.034746 c 1.323126,0 1.534316,-0.316397 1.534316,-1.837492 v -9.290096 c 0,0 0.10201,-0.741691 -0.09025,-1.263553 L 37.885616,9.2534336 C 37.707973,8.7606171 37.334964,8.427184 36.865071,8.4157227 Z" id="path4252" sodipodi:nodetypes="cccsccccccccc" />
      <path style="fill:none;fill-opacity:0.75;fill-rule:evenodd;stroke:#ffffff;stroke-width:1px;stroke-linecap:square;stroke-linejoin:miter;stroke-opacity:0.423729" d="m 40.5,31.429166 v 5.020935" id="path4282" />
      <path id="path4284" d="m 38.5,31.488943 v 5.020935" style="fill:none;fill-opacity:0.75;fill-rule:evenodd;stroke:#ffffff;stroke-width:1px;stroke-linecap:square;stroke-linejoin:miter;stroke-opacity:0.423729" />
      <path style="fill:none;fill-opacity:0.75;fill-rule:evenodd;stroke:#ffffff;stroke-width:1px;stroke-linecap:square;stroke-linejoin:miter;stroke-opacity:0.423729" d="m 36.5,31.488943 v 5.020935" id="path4286" />
      <path id="path4288" d="m 34.5,31.488943 v 5.020935" style="fill:none;fill-opacity:0.75;fill-rule:evenodd;stroke:#ffffff;stroke-width:1px;stroke-linecap:square;stroke-linejoin:miter;stroke-opacity:0.423729" />
      <path style="fill:none;fill-opacity:0.75;fill-rule:evenodd;stroke:#ffffff;stroke-width:1px;stroke-linecap:square;stroke-linejoin:miter;stroke-opacity:0.423729" d="m 32.5,31.488943 v 5.020935" id="path4290" />
      <path id="path4292" d="m 30.5,31.488943 v 5.020935" style="fill:none;fill-opacity:0.75;fill-rule:evenodd;stroke:#ffffff;stroke-width:1px;stroke-linecap:square;stroke-linejoin:miter;stroke-opacity:0.423729" />
      <path id="path4294" d="M 39.5,31.479065 V 36.5" style="opacity:0.0971428;fill:none;fill-opacity:0.75;fill-rule:evenodd;stroke:#000000;stroke-width:1px;stroke-linecap:square;stroke-linejoin:miter;stroke-opacity:1" />
      <path style="opacity:0.0971428;fill:none;fill-opacity:0.75;fill-rule:evenodd;stroke:#000000;stroke-width:1px;stroke-linecap:square;stroke-linejoin:miter;stroke-opacity:1" d="m 37.5,31.538842 v 5.020935" id="path4296" />
      <path id="path4298" d="m 35.5,31.538842 v 5.020935" style="opacity:0.0971428;fill:none;fill-opacity:0.75;fill-rule:evenodd;stroke:#000000;stroke-width:1px;stroke-linecap:square;stroke-linejoin:miter;stroke-opacity:1" />
      <path style="opacity:0.0971428;fill:none;fill-opacity:0.75;fill-rule:evenodd;stroke:#000000;stroke-width:1px;stroke-linecap:square;stroke-linejoin:miter;stroke-opacity:1" d="m 33.5,31.538842 v 5.020935" id="path4300" />
      <path id="path4302" d="m 31.5,31.538842 v 5.020935" style="opacity:0.0971428;fill:none;fill-opacity:0.75;fill-rule:evenodd;stroke:#000000;stroke-width:1px;stroke-linecap:square;stroke-linejoin:miter;stroke-opacity:1" />
      <path id="path4572" d="m 7.875,31.1875 v 5.53125 H 20.4375 L 8.21875,36.375 Z" style="opacity:0.44;fill:#ffffff;fill-opacity:1;fill-rule:evenodd;stroke:none;stroke-width:1px;stroke-linecap:butt;stroke-linejoin:miter;stroke-opacity:1" />
      <ellipse style="color:#000000;display:inline;overflow:visible;visibility:visible;opacity:0.205714;fill:url(#linearGradient2553);fill-opacity:1;fill-rule:evenodd;stroke:none;stroke-width:0.933652;stroke-linecap:square;stroke-linejoin:round;stroke-miterlimit:4;stroke-dasharray:none;stroke-dashoffset:0;stroke-opacity:0.423729;marker:none;marker-start:none;marker-mid:none;marker-end:none" id="path2545" transform="matrix(1.037815,0,0,1.060747,-1.632878,-2.094626)" cx="25" cy="19.5625" rx="14.875" ry="6.6875" /> </g>
    <g id="layer1-3" inkscape:label="Layer 1" transform="matrix(0.19307895,0,0,0.20106502,168.2016,130.52461)">
      <ellipse transform="matrix(-1.489736,0,0,-1.001252,61.20865,75.2819)" id="path8660" style="color:#000000;display:inline;overflow:visible;visibility:visible;opacity:0.383333;fill:url(#radialGradient1503);fill-opacity:1;fill-rule:evenodd;stroke:none;stroke-width:1;stroke-linecap:butt;stroke-linejoin:miter;stroke-miterlimit:10;stroke-dasharray:none;stroke-dashoffset:0;stroke-opacity:1;marker:none;marker-start:none;marker-mid:none;marker-end:none" inkscape:r_cx="true" inkscape:r_cy="true" cx="24.837126" cy="36.421127" rx="15.644737" ry="8.3968935" />
      <path style="color:#000000;display:block;overflow:visible;visibility:visible;fill:url(#linearGradient1486);fill-opacity:1;fill-rule:nonzero;stroke:url(#linearGradient1488);stroke-width:1;stroke-linecap:butt;stroke-linejoin:miter;stroke-miterlimit:4;stroke-dasharray:none;stroke-dashoffset:0;stroke-opacity:1;marker:none;marker-start:none;marker-mid:none;marker-end:none" d="m 20.152913,10.409904 c 0,0 -8.9375,-0.625 -6.1875,9.875 H 6.2779132 c 0,0 0.5,-11.875 13.8749998,-9.875 z" id="path2865" inkscape:r_cx="true" inkscape:r_cy="true" sodipodi:nodetypes="cccc" />
      <g id="g1878" transform="matrix(-0.579051,-0.489228,-0.489228,0.579051,56.91585,13.37137)" inkscape:r_cx="true" inkscape:r_cy="true" style="fill:url(#linearGradient2386);fill-opacity:1;stroke:#3465a4;stroke-opacity:1">
        <path sodipodi:nodetypes="ccccccc" id="path1880" d="M 44.306783,50.229694 C 62.821497,35.818859 49.664587,13.411704 22.462411,12.49765 L 22.113843,3.1515478 7.6245439,20.496754 22.714328,33.219189 c 0,0 -0.251917,-9.88122 -0.251917,-9.88122 18.82976,0.998977 32.981627,14.071729 21.844372,26.891725 z" style="color:#000000;display:block;overflow:visible;visibility:visible;opacity:1;fill:url(#linearGradient259);fill-opacity:1;fill-rule:nonzero;stroke:url(#linearGradient261);stroke-width:1.31917;stroke-linecap:butt;stroke-linejoin:miter;stroke-miterlimit:4;stroke-dasharray:none;stroke-dashoffset:0;stroke-opacity:1;marker:none;marker-start:none;marker-mid:none;marker-end:none" inkscape:r_cx="true" inkscape:r_cy="true" /> </g>
      <path sodipodi:nodetypes="cccc" inkscape:r_cy="true" inkscape:r_cx="true" id="path2839" d="m 28.375,33.4375 c 0,0 8.9375,0.625 6.1875,-9.875 h 7.775888 c 0,1.502602 -0.588388,11.875 -13.963388,9.875 z" style="color:#000000;display:block;overflow:visible;visibility:visible;fill:url(#linearGradient2696);fill-opacity:1;fill-rule:nonzero;stroke:url(#linearGradient2688);stroke-width:1;stroke-linecap:butt;stroke-linejoin:miter;stroke-miterlimit:4;stroke-dasharray:none;stroke-dashoffset:0;stroke-opacity:1;marker:none;marker-start:none;marker-mid:none;marker-end:none" />
      <g style="color:#000000;display:block;overflow:visible;visibility:visible;opacity:1;fill:url(#linearGradient2408);fill-opacity:1;fill-rule:nonzero;stroke:url(#linearGradient1501);stroke-width:1.31917;stroke-linecap:butt;stroke-linejoin:miter;stroke-miterlimit:4;stroke-dasharray:none;stroke-dashoffset:0;stroke-opacity:1;marker:none;marker-start:none;marker-mid:none;marker-end:none" inkscape:r_cy="true" inkscape:r_cx="true" transform="matrix(0.579051,0.489228,0.489228,-0.579051,-7.921023,30.53599)" id="g2779">
        <path inkscape:r_cy="true" inkscape:r_cx="true" style="color:#000000;display:block;overflow:visible;visibility:visible;opacity:1;fill:url(#linearGradient263);fill-opacity:1;fill-rule:nonzero;stroke:url(#linearGradient265);stroke-width:1.31917;stroke-linecap:butt;stroke-linejoin:miter;stroke-miterlimit:4;stroke-dasharray:none;stroke-dashoffset:0;stroke-opacity:1;marker:none;marker-start:none;marker-mid:none;marker-end:none" d="M 44.306783,50.229694 C 62.821497,35.818859 49.664587,13.411704 22.462411,12.49765 L 22.399432,3.0690297 7.793943,20.424005 22.462411,33.006349 c 0,0 0,-9.66838 0,-9.66838 18.82976,0.998977 32.981627,14.071729 21.844372,26.891725 z" id="path2781" sodipodi:nodetypes="ccccccc" /> </g>
      <path style="color:#000000;display:inline;overflow:visible;visibility:visible;opacity:0.272222;fill:#ffffff;fill-opacity:1;fill-rule:nonzero;stroke:none;stroke-width:1;stroke-linecap:round;stroke-linejoin:miter;stroke-miterlimit:4;stroke-dasharray:none;stroke-dashoffset:0;stroke-opacity:1;marker:none;marker-start:none;marker-mid:none;marker-end:none" d="m 7.0625,38.1875 0.0625,-14.875 12.9375,-0.375 -4.388873,5.178817 3.867225,2.373199 c -3,2.25 -4.549548,2.422128 -5.549548,4.984628 l -2.816858,-2.110272 z" id="path2791" inkscape:r_cx="true" inkscape:r_cy="true" sodipodi:nodetypes="cccccccc" />
      <g id="g2793" transform="matrix(0.508536,0.429651,0.429651,-0.508536,-3.973188,30.54119)" inkscape:r_cx="true" inkscape:r_cy="true" style="opacity:0.5;fill:none;fill-opacity:1;stroke:#ffffff;stroke-opacity:1">
        <path sodipodi:nodetypes="ccccccc" id="path2795" d="M 51.090265,45.943705 C 60.210465,30.723955 46.631614,12.20113 19.485058,11.948579 L 19.513464,3.7032834 6.5341979,19.296639 19.367661,30.26876 c 0,0 0.05562,-9.006878 0.05562,-9.006878 17.527815,-0.223909 35.195185,10.103372 31.666984,24.681823 z" style="color:#000000;display:block;overflow:visible;visibility:visible;opacity:1;fill:none;fill-opacity:1;fill-rule:nonzero;stroke:url(#linearGradient267);stroke-width:1.50209;stroke-linecap:butt;stroke-linejoin:miter;stroke-miterlimit:4;stroke-dasharray:none;stroke-dashoffset:0;stroke-opacity:1;marker:none;marker-start:none;marker-mid:none;marker-end:none" inkscape:r_cx="true" inkscape:r_cy="true" /> </g>
      <g style="opacity:0.5;fill:none;fill-opacity:1;stroke:#ffffff;stroke-opacity:1" inkscape:r_cy="true" inkscape:r_cx="true" transform="matrix(-0.508536,-0.429651,-0.429651,0.508536,53.049,13.36548)" id="g2805">
        <path inkscape:r_cy="true" inkscape:r_cx="true" style="color:#000000;display:block;overflow:visible;visibility:visible;opacity:1;fill:none;fill-opacity:1;fill-rule:nonzero;stroke:url(#linearGradient1491);stroke-width:1.50209;stroke-linecap:butt;stroke-linejoin:miter;stroke-miterlimit:4;stroke-dasharray:none;stroke-dashoffset:0;stroke-opacity:1;marker:none;marker-start:none;marker-mid:none;marker-end:none" d="M 51.389927,46.505946 C 60.510127,31.286196 47.050763,12.432359 19.628482,12.069755 L 19.342824,4.0507204 6.3413093,19.379475 19.809059,30.764589 c 0,0 -0.181765,-9.453243 -0.181765,-9.453243 18.244937,0.381972 34.783881,10.925246 31.762633,25.1946 z" id="path2807" sodipodi:nodetypes="ccccccc" /> </g>
      <path style="color:#000000;display:inline;overflow:visible;visibility:visible;opacity:0.272222;fill:#ffffff;fill-opacity:1;fill-rule:nonzero;stroke:none;stroke-width:1;stroke-linecap:round;stroke-linejoin:miter;stroke-miterlimit:4;stroke-dasharray:none;stroke-dashoffset:0;stroke-opacity:1;marker:none;marker-start:none;marker-mid:none;marker-end:none" d="M 6.8125,16.5 C 10.405935,6.0587275 23.256282,10.355393 27,12 31.175307,12.211475 32.674736,9.164996 36,9 21.950264,-0.7899963 7.1875,2.5 6.8125,16.5 Z" id="path2811" inkscape:r_cx="true" inkscape:r_cy="true" sodipodi:nodetypes="cccc" /> </g>
  </g>
</svg>
